{"title":"Enemmy 2013 Hindi Movies HDScam New Source Sample Included ~ â˜»rD","uid":8604349,"size":744249344,"categoryP":"video","categoryS":"movies","magnet":"?xt=urn:btih:5f1f8d6decf54660336a3956fff75738f6c4bbd3&amp;dn=Enemmy+2013+Hindi+Movies+HDScam+New+Source+Sample+Included+%7E+%E2%98%BBrD&amp;tr=udp%3A%2F%2Ftracker.openbittorrent.com%3A80&amp;tr=udp%3A%2F%2Fopen.demonii.com%3A1337&amp;tr=udp%3A%2F%2Ftracker.coppersurfer.tk%3A6969&amp;tr=udp%3A%2F%2Fexodus.desync.com%3A6969","seeders":2,"leechers":0,"uploader":"basicssom","files":3,"time":1371969260,"description":"Enemmy 2013 Hindi Movies HDScam New Source Sample Included ~ â˜»rDXâ˜»\n\nScreen Shots :\n &lt;a href=&quot;\nhttp://myimghosting.serveftp.com/13/Enemmy.html&quot; rel=&quot;nofollow&quot; target=&quot;_NEW&quot;&gt;\nhttp://myimghosting.serveftp.com/13/Enemmy.html&lt;/a&gt;\n &lt;a href=&quot;\nhttp://myimghost.cwahi.net/Enemmy.html[/url][/b]&quot; rel=&quot;nofollow&quot; target=&quot;_NEW&quot;&gt;\nhttp://myimghost.cwahi.net/Enemmy.html[/url][/b]&lt;/a&gt;\n &lt;a href=&quot;\nhttp://users2.jabry.com/myimghost/Enemmy/Enemmy.jpg&quot; rel=&quot;nofollow&quot; target=&quot;_NEW&quot;&gt;\nhttp://users2.jabry.com/myimghost/Enemmy/Enemmy.jpg&lt;/a&gt;\n\nFormat                                   : MPEG-PS\nFile size                                : 667 MiB\nDuration                                 : 1h 52mn\nOverall bit rate mode                    : Variable\nOverall bit rate                         : 828 Kbps\n\nVideo\nID                                       : 224 (0xE0)\nFormat                                   : MPEG Video\nFormat version                           : Version 2\nFormat profile                           : Main@Main\nFormat settings, BVOP                    : Yes\nFormat settings, Matrix                  : Default\nFormat settings, GOP                     : M=3, N=13\nDuration                                 : 1h 52mn\nBit rate mode                            : Variable\nBit rate                                 : 683 Kbps\nMaximum bit rate                         : 9 072 Kbps\nWidth                                    : 352 pixels\nHeight                                   : 288 pixels\nDisplay aspect ratio                     : 4:3\nFrame rate                               : 25.000 fps\nStandard                                 : PAL\nColor space                              : YUV\nChroma subsampling                       : 4:2:0\nBit depth                                : 8 bits\nScan type                                : Progressive\nCompression mode                         : Lossy\nBits/(Pixel*Frame)                       : 0.270\nStream size                              : 550 MiB (83%)\n\nAudio\nID                                       : 192 (0xC0)\nFormat                                   : MPEG Audio\nFormat version                           : Version 1\nFormat profile                           : Layer 2\nDuration                                 : 1h 52mn\nBit rate mode                            : Constant\nBit rate                                 : 128 Kbps\nChannel(s)                               : 2 channels\nSampling rate                            : 48.0 KHz\nCompression mode                         : Lossy\nStream size                              : 103 MiB (15%)","torrent":{"xt":"urn:btih:5f1f8d6decf54660336a3956fff75738f6c4bbd3","amp;dn":"Enemmy+2013+Hindi+Movies+HDScam+New+Source+Sample+Included+%7E+%E2%98%BBrD","amp;tr":["udp%3A%2F%2Ftracker.openbittorrent.com%3A80","udp%3A%2F%2Fopen.demonii.com%3A1337","udp%3A%2F%2Ftracker.coppersurfer.tk%3A6969","udp%3A%2F%2Fexodus.desync.com%3A6969"],"infoHash":"5f1f8d6decf54660336a3956fff75738f6c4bbd3","infoHashBuffer":{"type":"Buffer","data":[95,31,141,109,236,245,70,96,51,106,57,86,255,247,87,56,246,196,187,211]},"announce":[],"urlList":[]}}